<?xml version="1.0" encoding="UTF-8" standalone="no"?>
<!DOCTYPE svg PUBLIC "-//W3C//DTD SVG 1.1//EN" "http://www.w3.org/Graphics/SVG/1.1/DTD/svg11.dtd">
<svg width="100%" height="100%" viewBox="0 0 4096 4096" version="1.1" xmlns="http://www.w3.org/2000/svg" xmlns:xlink="http://www.w3.org/1999/xlink" xml:space="preserve" xmlns:serif="http://www.serif.com/" style="fill-rule:evenodd;clip-rule:evenodd;stroke-linecap:round;stroke-linejoin:round;stroke-miterlimit:1.5;">
    <g id="Eye" transform="matrix(0.654414,0,0,0.654414,705.61204,712.762699)">
        <g transform="matrix(0.315183,0,0,0.375281,1381.850406,1279.196092)">
            <path d="M1597.085,639.789C1760.389,597.556 1933.825,574.819 2113.535,574.819C3082.04,574.819 3868.343,1235.201 3868.343,2048.607C3868.343,2862.013 3082.04,3522.396 2113.535,3522.396C1145.03,3522.396 358.726,2862.013 358.726,2048.607C358.726,1645.115 552.211,1279.277 865.441,1013.022C944.737,1073.683 1050.131,1110.686 1165.735,1110.686C1411.999,1110.686 1611.935,942.769 1611.935,735.942C1611.935,702.708 1606.772,670.478 1597.085,639.789ZM1963.525,2059.548L1966.766,2064.441C1963.413,2073.229 1962.308,2072.554 1953.558,2078.159C1946.697,2080.896 1507.1,2304.604 1460.752,2291.459C1336.285,2256.157 1336.678,2256.044 1210.706,2224.784C1171.617,2215.084 1097.497,2200.651 1097.103,2200.562C1048.643,2189.601 994.628,2216.173 997.877,2257.299C1003.158,2324.124 1082.836,2327.482 1197.081,2356.939C1287.3,2380.202 1327.399,2378.526 1295.326,2394.353C1275.555,2404.11 1275.051,2403.023 1041.781,2506.645C962.928,2541.673 995.772,2641.245 1090.667,2626.321C1105.808,2623.94 1293.249,2534.601 1310.654,2526.305C1378.6,2493.92 1379.571,2493.4 1385.756,2495.529C1391.844,2497.625 1372.675,2544.957 1364.195,2568.074C1362.765,2571.972 1352.433,2600.136 1346.913,2616.948C1318.248,2704.242 1305.687,2711.704 1327.65,2746.3C1348.154,2778.599 1391.874,2777.236 1392.018,2777.214C1462.324,2766.66 1463.944,2730.083 1498.894,2622.982C1523.063,2548.917 1523.853,2549.412 1548.762,2475.81C1584.239,2370.981 1641.897,2375.583 1775.04,2307.685C1780.296,2305.004 1812.38,2288.643 1841.552,2275.327C1948.748,2226.397 2036.92,2176.371 2046.983,2178.949C2052.058,2180.248 2052.321,2200.687 2052.346,2202.614C2054.882,2399.173 2051.57,2548.06 2051.809,2571.058C2052.238,2612.462 2048.57,2614.712 1983.613,2661.889C1967.181,2673.823 1857.625,2753.39 1787.137,2819.317C1749.449,2854.565 1729.737,2864.878 1725.064,2893.491C1719.354,2928.451 1754.295,2954.27 1756.543,2955.471C1786.742,2971.609 1813.461,2978.396 1874.687,2924.563C1880.331,2919.601 2036.925,2792.803 2040.525,2790.868C2061.244,2779.731 2050.529,2801.472 2053.531,3048.884C2054.381,3118.898 2170.725,3133.441 2199.397,3065.714C2207.207,3047.266 2200.917,2811.01 2202.976,2798.264C2206.408,2777.012 2218.475,2799.306 2387.055,2938.625C2472.801,3009.487 2569.776,2920.964 2501.245,2856.992C2482.448,2839.446 2481.319,2840.756 2462.381,2823.561C2457.905,2819.498 2416.93,2782.294 2405.386,2773.597C2395.743,2766.332 2359.33,2734.734 2357.376,2733.405C2349.162,2727.816 2337.565,2718.095 2335.908,2716.706C2244.463,2640.052 2237.35,2645.247 2215.823,2613.675C2200.439,2591.112 2202.474,2589.551 2202.474,2323.503C2202.474,2184.326 2199.897,2172.137 2217.931,2176.993C2229.246,2180.04 2463.369,2302.126 2484.58,2313.187C2496.205,2319.249 2623.421,2385.588 2630.093,2388.7C2676.481,2410.336 2672.06,2416.755 2714.001,2536.74C2784.815,2739.322 2785.545,2739.153 2787.848,2743.392C2801.968,2769.38 2876.036,2802.174 2923.425,2743.434C2945.228,2716.407 2902.595,2634.756 2882.682,2571.129C2862.033,2505.149 2856.595,2503.246 2863.039,2500.082C2872.869,2495.258 3102.637,2610.192 3133.452,2619.284C3186.842,2635.036 3229.323,2617.069 3240.35,2591.531C3271.317,2519.813 3192.721,2502.535 3058.319,2440.666C2941.266,2386.784 2934.802,2393.076 2931.094,2383.912C2929.286,2379.444 2930.679,2375.943 2996.385,2362.178C3012.202,2358.864 3124.104,2335.422 3190.725,2310.718C3243.637,2291.097 3247.66,2255.557 3239.017,2237.268C3203.285,2161.658 3114.701,2201.391 3095.75,2206.228C2923.914,2250.085 2804.859,2306.695 2690.989,2268.916C2674.936,2263.59 2301.194,2073.032 2290.439,2066.811L2281.416,2060.786C2282.023,2056.924 2281.694,2057.026 2283.606,2053.302C2305.842,2039.567 2340.704,2024.556 2345.854,2022.338L2420.827,1984.971L2427.835,1981.735L2440.872,1975.245C2460.065,1965.958 2562.771,1916.265 2678.037,1855.239C2743.571,1820.543 2770.444,1841.238 3061.53,1902.277C3156.692,1922.232 3180.078,1936.108 3222.006,1905.866C3244.925,1889.335 3249.558,1854.87 3239.228,1837.115C3218.194,1800.959 3207.327,1808.02 2951.773,1749.805C2926.279,1743.997 2960.987,1732.014 2996.654,1714.126C3013.098,1705.879 3152.093,1636.17 3204.304,1614.033C3269.64,1586.33 3252.627,1487.916 3157.356,1495.601C3132.026,1497.645 2909.899,1613.894 2865.537,1632.078C2839.316,1642.827 2857.279,1619.049 2921.186,1445.687C2923.933,1438.234 2948.419,1371.81 2889.195,1351.933C2793.759,1319.902 2770.824,1436.786 2750.927,1486.318C2693.578,1629.084 2681.556,1715.723 2597.715,1758.25C2515.299,1800.053 2396.262,1853.99 2378.548,1862.016C2223.483,1932.278 2205.805,1948.867 2200.922,1934.91C2198.386,1927.664 2198.553,1544.298 2211.057,1514.591C2220.218,1492.827 2365.04,1374.5 2381.127,1358.095C2430.194,1308.054 2558.368,1233.971 2512.277,1181.03C2446.222,1105.159 2372.227,1192.962 2298.729,1254.289C2267.161,1280.63 2267.594,1280.957 2264.656,1283.068C2233.846,1305.202 2213.93,1330.909 2203.942,1328.233C2193.249,1325.367 2199.344,1129.129 2198.415,1062.727C2197.226,977.622 2089.996,962.34 2054.509,1034.256C2038.899,1065.892 2052.024,1333.233 2046.088,1338.679C2038.686,1345.471 2026.866,1330.719 2024.651,1328.817C2021.804,1326.372 2005.284,1312.185 1989.293,1298.076C1975.679,1286.062 1844.341,1169.544 1840.38,1167.094C1765.019,1120.486 1693.091,1198.443 1729.564,1249.076C1733.078,1253.954 1732.277,1254.711 1944.728,1436.245C2022.52,1502.715 2045.836,1517.607 2051.178,1534.599C2052.018,1537.27 2054.514,1939.572 2049.873,1943.34C2045.314,1947.042 2043.182,1946.586 1978.854,1913.772C1831.307,1838.508 1830.652,1839.614 1817.861,1833.032C1706.176,1775.561 1633.991,1756.872 1606.109,1732.148C1577.827,1707.07 1503.191,1514.635 1466.268,1408.446C1443.823,1343.895 1391.127,1340.249 1382.021,1342.701C1289.829,1367.52 1318.247,1427.243 1342.399,1492.055C1384.429,1604.845 1402.848,1619.292 1382.057,1614.628C1375.684,1613.199 1123.935,1513.452 1101.533,1504.576C1017.425,1471.251 969.946,1569.21 1023.201,1605.559C1049.854,1623.751 1158.427,1668.247 1159.775,1668.764C1305.282,1724.496 1307.485,1719.947 1319.315,1726.045C1345.434,1739.51 1271.434,1752.979 1224.236,1765.396C1105.207,1796.711 988.253,1789.626 981.295,1854.373C974.154,1920.819 1036.247,1924.536 1042.577,1925.75C1122.019,1940.996 1468.911,1828.631 1487.989,1825.251C1494.96,1824.015 1507.04,1821.875 1569.378,1855.637C1622.774,1884.557 1944.201,2047.193 1963.525,2059.548Z"/>
        </g>
        <path d="M95.722,2048.169C95.722,2048.169 1884.701,-73.977 4006.846,2048.169C1919.854,4135.161 95.722,2048.169 95.722,2048.169Z" style="fill:none;stroke:black;stroke-width:286.52px;"/>
        <g transform="matrix(1.035634,0,0,1.035634,-173.977266,-119.994237)">
            <circle cx="2145.523" cy="2093.398" r="859.35" style="fill:none;stroke:black;stroke-width:276.66px;"/>
        </g>
    </g>
    <g transform="matrix(3.921875,0,0,3.921875,42,40)">
        <path d="M510.5,0L512.5,0C513.903,0.914 513.638,1.179 515.681,2.072C519.839,3.889 520.945,3.116 533.14,22.724C541.393,35.993 541.254,36.064 541.971,37.217C548.795,48.188 547.566,51.62 560.512,52.25C568.32,52.63 593.081,13.839 606.422,11.12C621.181,8.112 625.389,29.329 634.405,53.536C638.906,65.622 637.84,68.28 650.453,70.804C653.945,71.503 676.626,53.118 688.764,44.88C715.838,26.506 717.423,58.513 719.305,69.539C724.214,98.315 721.952,103.227 733.585,106.195C741.625,108.246 780.503,83.286 789.562,85.275C807.027,89.11 801.523,108.787 800.798,135.517C800.51,146.099 797.184,148.907 807.828,157.059C814.325,162.035 856.753,143.037 868.615,148.229C884.106,155.009 873.798,175.689 866.375,209.468C865.348,214.14 865.731,214.412 870.984,221.101C876.006,227.496 917.665,220.027 926.54,222.28C949.244,228.044 933.502,251.766 929.254,261.389C917.831,287.27 915.038,288.609 921.84,298.262C925.659,303.683 972.392,303.737 981.16,312.828C990.171,322.17 982.253,331.206 965.021,355.164C953.895,370.631 951.781,371.148 955.23,380.602C958.793,390.367 1003.235,397.176 1010.577,407.439C1021.675,422.954 993.94,438.133 974.826,457.826C974.01,458.667 969.954,462.846 972.977,472.35C974.152,476.045 997.235,487.506 1013.797,499.083C1018.097,502.089 1017.176,503.315 1021.999,505.5L1021.999,518.5C1018.801,522.988 1016.407,524.57 1015.809,524.965C993.292,539.844 973.491,549.484 972.465,554.493C970.101,566.039 974.95,567.76 985.162,576.88C1009.348,598.478 1010.798,601.844 1012.022,604.685C1018.443,619.589 1001.899,624.439 969.363,636.094C965.011,637.653 953.739,637.963 953.71,652.496C953.697,659.018 980.542,687.398 983.779,698.411C989.392,717.509 969.14,718.271 936.436,723.182C924.684,724.947 922.037,723.187 918.175,734.393C915.669,741.663 938.39,776.441 938.856,789.484C939.546,808.825 905.69,802.146 887.489,801.857C875.388,801.665 873.232,799.38 866.743,809.645C863.313,815.07 880.166,859.596 876.369,868.449C870.98,881.014 861.326,878.104 855.426,876.991C822.968,870.866 813.61,864.351 806.773,868.916C796.073,876.059 801.845,884.306 802.022,918.501C802.232,959.061 767.896,930.909 737.375,918.87C734.836,917.869 728.228,920.968 725.579,923.582C720.912,928.189 719.732,972.751 712.292,981.322C703.132,991.874 693.376,983.971 672.844,969.02C653.681,955.066 653.003,952.391 642.596,956.733C634.584,960.076 626.445,1005.353 616.213,1012.105C604.127,1020.079 593.243,1004.953 582.548,993.455C563.97,973.484 563.802,973.326 561.551,973.03C552.004,971.773 549.43,975.839 548.865,976.733C525.935,1012.96 527.388,1016.591 514.5,1023.999C512.956,1023.403 513.202,1022.852 511.492,1022.838C502.797,1022.766 501.932,1021.854 487.959,999.222C473.846,976.363 474.009,972.45 462.488,972.913C454.506,973.233 427.814,1013.396 416.464,1014.061C402.488,1014.878 400.541,1004.731 389.887,975.369C384.375,960.178 385.007,955.771 372.507,954.413C366.824,953.795 336.789,981.479 325.374,985.032C308.596,990.253 306.417,973.383 302.37,947.523C299.162,927.027 301.281,923.548 289.37,918.848C283.389,916.488 245.344,941.323 233.425,939.903C214.286,937.623 222.772,905.612 222.747,877.497C222.746,876.469 222.742,872.41 214.365,867.755C208.712,864.613 166.64,880.435 156.442,877.767C139.007,873.205 147.956,853.388 156.695,815.546C156.954,814.423 158.302,808.588 150.444,802.572C146.326,799.419 100.868,806.174 91.646,801.207C78.311,794.025 85.281,780.506 98.821,752.656C105.041,739.863 108.802,738.722 101.027,726.857C98.216,722.568 56.327,720.591 45.7,715.109C29.745,706.879 45.451,686.843 46.933,684.823C67.133,657.286 73.41,655.515 67.064,642.72C63.663,635.861 16.408,627.659 11.24,615.621C5.21,601.577 22.71,591.443 42.182,573.15C51.061,564.808 53.391,564.305 50.04,552.65C48.511,547.333 1.917,527.121 1.041,516.598C-0.373,499.613 10.491,498.644 36.32,482.215C48.683,474.352 51.302,474.776 51.123,463.53C50.994,455.448 12.792,430.674 10.174,418.583C7.112,404.446 21.92,400.938 44.521,392.552C64.023,385.316 67.7,386.392 69.641,373.509C70.44,368.206 41.566,337.161 39.024,325.578C34.224,303.71 64.481,306.87 97.468,300.338C98.516,300.13 103.545,299.135 105.172,289.44C106.209,283.256 83.009,243.958 83.952,235.538C85.821,218.846 101.925,221.682 143.486,223.759C154.851,224.327 157.716,214.279 156.623,209.47C147.599,169.73 141.022,158.44 151.7,149.756C162.994,140.571 208.185,162.422 215.165,157.049C224.379,149.955 222.534,148.339 222.174,137.512C220.755,94.778 219.585,92.447 228.764,86.99C234.776,83.415 236.143,83.458 271.71,100.034C283.747,105.644 288.282,109.535 297.125,102.082C301.398,98.482 303.971,54.511 309.654,45.59C321.781,26.554 349.642,58.319 367.767,69.033C372.974,72.111 381.452,69.653 383.586,65.546C395.058,43.478 396.958,10.411 415.486,10.968C424.808,11.248 423.514,14.592 456.715,49.293C460.582,53.335 470.468,54.507 475.053,47.223C495.48,14.77 495.148,14.578 496.949,11.773C501.9,4.062 502.872,5.006 510.5,0ZM747.187,808.723C745.278,810.343 735.911,818.286 721.767,826.976C715.962,830.543 715.437,832.65 712.932,832.438C710.466,844.385 711.175,845.374 711.822,846.277C727.437,868.065 771.447,852.745 764.665,820.461C763.101,813.017 761.999,810.165 747.187,808.723ZM510.501,92.037C508.657,92.088 496.691,92.418 488.801,99.836C462.773,124.305 487.674,161.305 515.522,155.624C555.368,147.495 547.157,91.461 510.501,92.037ZM317.956,823.499C317.903,821.935 317.581,812.333 312.012,804.859C289.737,774.969 242.595,800.791 256.159,835.633C268.769,868.023 318.638,859.225 317.956,823.499ZM117.072,397.501C117.47,400.549 116.889,411.627 128.792,422.154C139.145,431.309 158.066,431.675 168.308,423.26C202.998,394.757 162.681,347.551 129.766,371.846C118.089,380.465 117.208,395.215 117.072,397.501ZM901.961,398.499C901.829,396.322 900.973,382.187 890.204,373.895C864.305,353.954 831.79,380.668 838.407,405.523C849.079,445.612 902.468,435.447 901.961,398.499ZM510.503,198.036C504.037,196.946 498.037,198.283 478.633,179.363C476.042,176.836 458.637,159.865 447.913,146.153C442.957,139.815 442.187,139.262 434.433,141.251C417.082,145.701 393.619,149.176 347.614,170.734C250.497,216.244 194.419,301.27 183.318,323.425C180.807,328.436 226.143,396.37 219.769,421.587C213.677,445.687 147.571,463.453 136.386,469.306C135.434,469.805 135.137,469.96 133.969,482.529C128.83,537.832 141.013,590.42 143.133,599.57C165.131,694.525 223.145,758.495 234.786,770.181C236.609,772.013 245.025,768.565 259.422,765.152C316.403,751.646 332.888,749.028 342.715,790.443C343.319,792.99 347.894,812.268 349.02,822.55C349.458,826.542 354.245,855.302 354.338,855.56C355.069,857.599 389.372,872.696 427.579,881.111C459.297,888.097 465.335,887.649 485.482,889.675C518.4,892.984 597.368,889.405 664.401,858.297C667.562,856.83 666.092,855.606 672.73,815.541C681.046,765.347 685.769,751.777 735.58,762.027C774.742,770.086 779.761,773.678 783.485,773.782C786.03,773.853 800.876,756.631 812.903,740.815C885.053,645.932 887.986,552.31 889.642,529.509C890.973,511.178 889.033,479.268 888.247,477.59C885.613,471.966 810.137,448.349 801.205,422.604C794.524,403.347 822.929,356.267 838.214,323.384C839.251,321.153 834.84,315.049 827.852,304.269C737.094,164.258 582.748,137.635 579.629,140.667C557.754,161.935 533.315,196.451 510.503,198.036Z" style="fill-opacity:1;"/>
    </g>
</svg>
